<svg viewBox="0 4 26 18" fill="none" xmlns="http://www.w3.org/2000/svg">
<path d="M17.6379 12.83C18.1666 12.83 18.6834 12.6733 19.123 12.3796C19.5626 12.0859 19.9052 11.6684 20.1075 11.18C20.3098 10.6915 20.3627 10.1541 20.2596 9.63557C20.1564 9.11706 19.9019 8.64078 19.528 8.26695C19.1542 7.89313 18.6779 7.63855 18.1594 7.53541C17.6409 7.43227 17.1035 7.4852 16.615 7.68752C16.1266 7.88983 15.7091 8.23244 15.4154 8.67201C15.1217 9.11158 14.9649 9.62838 14.9649 10.157C14.9639 10.5084 15.0323 10.8564 15.1663 11.1812C15.3002 11.506 15.4971 11.8011 15.7455 12.0495C15.9939 12.2979 16.289 12.4948 16.6138 12.6287C16.9386 12.7627 17.2866 12.8311 17.6379 12.83ZM9.62194 11.761C10.2561 11.7608 10.876 11.5726 11.4033 11.2202C11.9305 10.8677 12.3414 10.3668 12.584 9.78085C12.8266 9.19489 12.89 8.55015 12.7663 7.92815C12.6425 7.30614 12.3371 6.7348 11.8886 6.28636C11.4402 5.83791 10.8688 5.53249 10.2468 5.40872C9.62484 5.28494 8.9801 5.34837 8.39414 5.59097C7.80817 5.83358 7.3073 6.24447 6.95483 6.77171C6.60237 7.29895 6.41414 7.91885 6.41394 8.55305C6.41209 8.97485 6.4938 9.39284 6.65436 9.78288C6.81492 10.1729 7.05115 10.5273 7.34941 10.8256C7.64767 11.1238 8.00205 11.3601 8.3921 11.5206C8.78215 11.6812 9.20014 11.7629 9.62194 11.761ZM17.6379 14.968C15.6819 14.968 11.7579 15.952 11.7579 17.908V20.313H23.5179V17.908C23.5199 15.951 19.5959 14.968 17.6379 14.968ZM9.62194 13.899C7.13094 13.899 2.13794 15.146 2.13794 17.641V20.314H9.62194V17.908C9.65135 17.1136 9.90489 16.3437 10.3533 15.6872C10.8017 15.0307 11.4266 14.5144 12.1559 14.198C11.323 14.0164 10.4743 13.9162 9.62194 13.899Z" fill="currentColor"/>
</svg>
