<svg width="59" height="72" viewBox="0 0 59 72" fill="none" xmlns="http://www.w3.org/2000/svg">
<path d="M1.80811 11.5405C11.6262 11.5405 21.1925 8.36085 28.7448 2.49056L29.5001 1.75665L30.2553 2.49056C37.8077 8.36085 47.374 11.5405 57.1921 11.5405C53.9194 21.3243 52.1572 28.6622 52.1572 33.5541C52.1572 38.446 53.9194 40.8919 57.1921 40.8919V48.2298C38.8147 62.9055 29.5001 70.2434 29.5001 70.2434C29.5001 70.2434 20.1855 62.9055 1.80811 48.2298V40.8919C5.08079 38.9352 6.84301 36.4892 6.84301 33.5541C6.84301 26.7054 5.08079 19.3675 1.80811 11.5405Z" fill="url(#paint0_linear_123_419)"/>
<path d="M25.2466 19.4135H33.9465V32.0928H25.2466V19.4135Z" fill="white"/>
<path d="M12.1963 39.7003L12.1963 32.0928L46.1261 32.0928L46.1261 39.7003L12.1963 39.7003Z" fill="white"/>
<path d="M33.9463 53.2249L25.2463 53.2249L25.2463 39.7003L33.9463 39.7003L33.9463 53.2249Z" fill="white"/>
<path fill-rule="evenodd" clip-rule="evenodd" d="M29.5 0C29.9796 0 30.4395 0.185113 30.7785 0.514609L31.4621 1.17889C38.6714 6.75354 47.8044 9.78382 57.192 9.78382C57.7708 9.78382 58.3145 10.053 58.6547 10.508C58.9949 10.963 59.0903 11.5486 58.9115 12.0834C55.6392 21.8659 53.9651 28.9679 53.9651 33.5541C53.9651 35.8455 54.387 37.2702 54.9458 38.0747C55.4259 38.7657 56.0941 39.1353 57.192 39.1353C58.1905 39.1353 59 39.9218 59 40.892V48.2298C59 48.7553 58.7578 49.2532 58.34 49.5869C49.1497 56.926 42.2252 62.4307 37.5978 66.1008C35.2841 67.9359 33.5447 69.3124 32.3836 70.2302C31.803 70.6892 31.367 71.0334 31.076 71.263L30.6405 71.6065L30.6388 71.6078L29.5 70.2434L28.3612 71.6078L28.3595 71.6065L27.924 71.263C27.633 71.0334 27.197 70.6892 26.6164 70.2302C25.4553 69.3124 23.7159 67.9359 21.4022 66.1008C16.7748 62.4307 9.85026 56.926 0.659995 49.5869C0.242152 49.2532 7.97725e-06 48.7553 7.97725e-06 48.2298V40.892C7.97725e-06 40.2819 0.32573 39.7156 0.860445 39.3959C3.81107 37.6317 5.03491 35.6706 5.03491 33.5541C5.03491 26.9949 3.34597 19.886 0.132957 12.2017C-0.0934944 11.6601 -0.0278234 11.0445 0.308145 10.5596C0.644113 10.0746 1.20636 9.78382 1.80802 9.78382C11.1956 9.78382 20.3286 6.75354 27.5379 1.17888L28.2214 0.514609C28.5605 0.185113 29.0204 0 29.5 0ZM29.5 4.14985C22.357 9.57643 13.5541 12.7191 4.42471 13.2247C7.15951 20.337 8.65093 27.1197 8.65093 33.5541C8.65093 36.999 6.71334 39.7509 3.61603 41.8416V47.3997C12.4753 54.4734 19.176 59.7999 23.6889 63.3792C26.001 65.2131 27.7388 66.5883 28.8985 67.5049C29.1201 67.6801 29.3206 67.8386 29.5 67.9803C29.6794 67.8386 29.8799 67.6801 30.1015 67.5049C31.2611 66.5883 32.999 65.2131 35.3111 63.3792C39.824 59.7999 46.5247 54.4734 55.384 47.3997V42.4307C53.9945 42.0758 52.8132 41.2847 51.9487 40.0403C50.8083 38.3988 50.3491 36.1546 50.3491 33.5541C50.3491 28.7595 51.9236 21.9428 54.7371 13.2334C45.5499 12.7562 36.6852 9.60848 29.5 4.14985ZM29.5 70.2434L28.3612 71.6078C29.0249 72.1307 29.9751 72.1307 30.6388 71.6078L29.5 70.2434Z" fill="white"/>
<defs>
<linearGradient id="paint0_linear_123_419" x1="29.5001" y1="1.75665" x2="29.5001" y2="70.2434" gradientUnits="userSpaceOnUse">
<stop stop-color="#0098B9" stop-opacity="0.99"/>
<stop offset="1" stop-color="#D6FFDA"/>
</linearGradient>
</defs>
</svg>
